<svg>
<symbol id="fb" width="18" height="18" viewBox="0 0 18 18" fill="none" xmlns="http://www.w3.org/2000/svg">
<rect x="0.5" y="0.5" width="17" height="17" stroke="#F4F4F4"/>
<path d="M10.0546 18H6.89056C6.59908 18 6.36322 17.7641 6.36322 17.4727V10.5469H4.78119C4.48971 10.5469 4.25385 10.311 4.25385 10.0195V6.85547C4.25385 6.56399 4.48971 6.32812 4.78119 6.32812H6.36322V3.69141C6.36322 1.65618 8.0194 0 10.0546 0H13.2187C13.5102 0 13.746 0.235863 13.746 0.527344V3.69141C13.746 3.98289 13.5102 4.21875 13.2187 4.21875H10.582V6.32812H13.2187C13.3737 6.32812 13.521 6.39612 13.6209 6.51456C13.7213 6.633 13.7646 6.78906 13.7388 6.94199L13.2114 10.1061C13.1692 10.3604 12.9493 10.5469 12.6913 10.5469H10.5819V17.4727C10.582 17.7641 10.3461 18 10.0546 18Z" fill="#6C6C6C"/>
</symbol>

<symbol id="ig" width="18" height="18" viewBox="0 0 18 18" fill="none" xmlns="http://www.w3.org/2000/svg">
<rect x="0.5" y="0.5" width="17" height="17" stroke="#F4F4F4"/>
<path d="M9 5.34375C6.96445 5.34375 5.30859 6.99961 5.30859 9.03516C5.30859 11.0707 6.96445 12.7266 9 12.7266C11.0355 12.7266 12.6914 11.0707 12.6914 9.03516C12.6914 6.99961 11.0355 5.34375 9 5.34375ZM9 5.34375C6.96445 5.34375 5.30859 6.99961 5.30859 9.03516C5.30859 11.0707 6.96445 12.7266 9 12.7266C11.0355 12.7266 12.6914 11.0707 12.6914 9.03516C12.6914 6.99961 11.0355 5.34375 9 5.34375ZM15.3633 0H2.63672C1.18125 0 0 1.18125 0 2.63672V15.3633C0 16.8188 1.18125 18 2.63672 18H15.3633C16.8188 18 18 16.8188 18 15.3633V2.63672C18 1.18125 16.8188 0 15.3633 0ZM9 13.7812C6.38441 13.7812 4.25391 11.6507 4.25391 9.03516C4.25391 6.4195 6.38441 4.28906 9 4.28906C11.6156 4.28906 13.7461 6.4195 13.7461 9.03516C13.7461 11.6507 11.6156 13.7812 9 13.7812ZM14.8008 4.28906C14.2207 4.28906 13.7461 3.81445 13.7461 3.23438C13.7461 2.6543 14.2207 2.17969 14.8008 2.17969C15.3809 2.17969 15.8555 2.6543 15.8555 3.23438C15.8555 3.81445 15.3809 4.28906 14.8008 4.28906ZM9 5.34375C6.96445 5.34375 5.30859 6.99961 5.30859 9.03516C5.30859 11.0707 6.96445 12.7266 9 12.7266C11.0355 12.7266 12.6914 11.0707 12.6914 9.03516C12.6914 6.99961 11.0355 5.34375 9 5.34375ZM9 5.34375C6.96445 5.34375 5.30859 6.99961 5.30859 9.03516C5.30859 11.0707 6.96445 12.7266 9 12.7266C11.0355 12.7266 12.6914 11.0707 12.6914 9.03516C12.6914 6.99961 11.0355 5.34375 9 5.34375ZM9 5.34375C6.96445 5.34375 5.30859 6.99961 5.30859 9.03516C5.30859 11.0707 6.96445 12.7266 9 12.7266C11.0355 12.7266 12.6914 11.0707 12.6914 9.03516C12.6914 6.99961 11.0355 5.34375 9 5.34375Z" fill="#6C6C6C"/>
</symbol>

<symbol id="wu" width="18" height="18" viewBox="0 0 18 18" fill="none" xmlns="http://www.w3.org/2000/svg">
<rect x="0.5" y="0.5" width="17" height="17" stroke="#F4F4F4"/>
<path d="M9.00225 0H8.99775C4.03538 0 0 4.0365 0 9C0 10.9688 0.6345 12.7935 1.71337 14.2751L0.59175 17.6186L4.05113 16.5128C5.47425 17.4555 7.17188 18 9.00225 18C13.9646 18 18 13.9624 18 9C18 4.03763 13.9646 0 9.00225 0ZM14.2391 12.7091C14.022 13.3223 13.1602 13.8307 12.4729 13.9792C12.0026 14.0794 11.3884 14.1593 9.32063 13.302C6.67575 12.2063 4.9725 9.51862 4.83975 9.34425C4.71263 9.16988 3.771 7.92112 3.771 6.62963C3.771 5.33813 4.42688 4.70925 4.69125 4.43925C4.90838 4.21763 5.26725 4.11637 5.6115 4.11637C5.72288 4.11637 5.823 4.122 5.913 4.1265C6.17737 4.13775 6.31012 4.1535 6.4845 4.57088C6.70162 5.094 7.23037 6.3855 7.29338 6.51825C7.3575 6.651 7.42163 6.831 7.33162 7.00538C7.24725 7.18538 7.173 7.26525 7.04025 7.41825C6.9075 7.57125 6.7815 7.68825 6.64875 7.8525C6.52725 7.99538 6.39 8.14838 6.543 8.41275C6.696 8.6715 7.22475 9.53437 8.00325 10.2274C9.00787 11.1217 9.82237 11.4075 10.1137 11.529C10.3309 11.619 10.5896 11.5976 10.7483 11.4289C10.9496 11.2118 11.1982 10.8518 11.4514 10.4974C11.6314 10.2431 11.8586 10.2116 12.0971 10.3016C12.3401 10.386 13.626 11.0216 13.8904 11.1532C14.1547 11.286 14.3291 11.349 14.3932 11.4604C14.4562 11.5718 14.4562 12.0949 14.2391 12.7091Z" fill="#6C6C6C"/>
</symbol>

<symbol id="evrytech" width="63" height="11" viewBox="0 0 63 11" fill="none" xmlns="http://www.w3.org/2000/svg">
<g clip-path="url(#clip0_1_166)">
<path d="M0.933256 7.82963C0.310963 7.19954 6.10352e-05 6.42277 6.10352e-05 5.49981C6.10352e-05 4.57685 0.310963 3.80056 0.933256 3.16999C1.55506 2.5399 2.31526 2.22461 3.21337 2.22461C4.11148 2.22461 4.87168 2.5399 5.49348 3.16999C6.11529 3.80008 6.42668 4.57685 6.42668 5.49981V5.93254H1.29776C1.39669 6.45152 1.62328 6.8594 1.97756 7.15617C2.33183 7.45294 2.74409 7.60108 3.21337 7.60108C3.78985 7.60108 4.25134 7.45684 4.59781 7.16835C4.75424 7.05286 4.8902 6.90861 5.00569 6.73562H6.36528C6.19228 7.1396 5.97397 7.48169 5.71034 7.7614C5.03444 8.4373 4.2026 8.775 3.21386 8.775C2.31575 8.775 1.55555 8.45972 0.933743 7.82963H0.933256ZM1.35965 4.8819H5.06758C4.99351 4.47012 4.79761 4.11975 4.48037 3.83126C4.16313 3.54278 3.74064 3.39853 3.21337 3.39853C2.76846 3.39853 2.37276 3.53254 2.02677 3.80008C1.68079 4.0681 1.45809 4.4287 1.35916 4.88141L1.35965 4.8819Z" fill="#4B4B4B"/>
<path d="M6.92151 2.34839H8.2811L9.64069 7.47779H10.4443L11.8038 2.34839H13.1634L11.433 8.65171H8.65194L6.92151 2.34839V2.34839Z" fill="#4B4B4B"/>
<path d="M14.5908 7.82963C13.9685 7.19954 13.6576 6.42277 13.6576 5.49981C13.6576 4.57685 13.9685 3.80056 14.5908 3.16999C15.2126 2.5399 15.9728 2.22461 16.8709 2.22461C17.769 2.22461 18.5292 2.5399 19.151 3.16999C19.7728 3.80008 20.0842 4.57685 20.0842 5.49981V5.93254H14.9548C15.0537 6.45152 15.2803 6.8594 15.6346 7.15617C15.9889 7.45294 16.4011 7.60108 16.8704 7.60108C17.4469 7.60108 17.9084 7.45684 18.2549 7.16835C18.4113 7.05286 18.5472 6.90861 18.6627 6.73562H20.0223C19.8493 7.1396 19.631 7.48169 19.3674 7.7614C18.6915 8.4373 17.8596 8.775 16.8709 8.775C15.9728 8.775 15.2126 8.45972 14.5908 7.82963ZM15.0172 4.8819H18.7251C18.651 4.47012 18.4551 4.11975 18.1379 3.83126C17.8207 3.54278 17.3982 3.39853 16.8709 3.39853C16.426 3.39853 16.0303 3.53254 15.6843 3.80008C15.3383 4.0681 15.1156 4.4287 15.0167 4.88141L15.0172 4.8819Z" fill="#4B4B4B"/>
<path d="M21.1967 8.65184V2.34851H22.4944V3.27537H22.5563C22.6469 3.10238 22.779 2.93766 22.952 2.78075C23.3306 2.45133 23.776 2.28662 24.2867 2.28662H25.0284V3.52243H24.2248C23.7219 3.52243 23.3082 3.6813 22.9827 3.99805C22.6572 4.31529 22.4944 4.7334 22.4944 5.25238V8.65135H21.1967V8.65184Z" fill="#4B4B4B"/>
<path d="M25.3984 2.34839H26.758L28.1176 7.41591H28.7974L30.2808 2.34839H31.6404L29.045 11.0001H27.6854L28.4271 8.65172H27.1294L25.3989 2.34839H25.3984Z" fill="#4B4B4B"/>
<path d="M36.7622 3.52228L37.6437 2.34787H38.3854V0.988281H39.6831V2.34787H41.5987V3.52228H39.6831V7.47727H41.6606V8.6512H38.3854V3.52179H36.7622V3.52228Z" fill="#4B4B4B"/>
<path d="M43.3355 7.82963C42.7132 7.19954 42.4023 6.42277 42.4023 5.49981C42.4023 4.57685 42.7132 3.80056 43.3355 3.16999C43.9578 2.5399 44.7175 2.22461 45.6157 2.22461C46.5138 2.22461 47.274 2.5399 47.8958 3.16999C48.5181 3.80008 48.829 4.57685 48.829 5.49981V5.93254H43.6996C43.7985 6.45152 44.0251 6.8594 44.3794 7.15617C44.7336 7.45294 45.1454 7.60108 45.6152 7.60108C46.1916 7.60108 46.6531 7.45684 46.9996 7.16835C47.156 7.05286 47.292 6.90861 47.4075 6.73562H48.7671C48.5941 7.1396 48.3758 7.48169 48.1121 7.7614C47.4362 8.4373 46.6044 8.775 45.6157 8.775C44.7175 8.775 43.9573 8.45972 43.3355 7.82963V7.82963ZM43.7619 4.8819H47.4699C47.3958 4.47012 47.1999 4.11975 46.8827 3.83126C46.5654 3.54278 46.1429 3.39853 45.6157 3.39853C45.1707 3.39853 44.775 3.53254 44.4291 3.80008C44.0831 4.0681 43.8604 4.4287 43.7614 4.88141L43.7619 4.8819Z" fill="#4B4B4B"/>
<path d="M50.4725 7.84887C49.8712 7.23097 49.5705 6.44835 49.5705 5.50054C49.5705 4.55272 49.8712 3.77011 50.4725 3.1522C51.0738 2.53429 51.8238 2.22534 52.7219 2.22534C53.7272 2.22534 54.5469 2.60837 55.1814 3.3749C55.4533 3.72917 55.6428 4.1083 55.75 4.51179H54.3905C54.333 4.30615 54.2258 4.12048 54.0693 3.95577C53.7482 3.58493 53.2989 3.39975 52.7219 3.39975C52.2107 3.39975 51.7848 3.59321 51.4427 3.98062C51.1006 4.36803 50.9296 4.87483 50.9296 5.50102C50.9296 6.12722 51.1006 6.63401 51.4427 7.02142C51.7848 7.40883 52.2107 7.6023 52.7219 7.6023C53.3155 7.6023 53.7808 7.41712 54.1185 7.04628C54.2667 6.88157 54.3783 6.69639 54.4523 6.49026H55.75C55.6428 6.91032 55.4533 7.29383 55.1814 7.63982C54.5552 8.39807 53.7355 8.77671 52.7219 8.77671C51.8238 8.77671 51.0738 8.46775 50.4725 7.84985V7.84887Z" fill="#4B4B4B"/>
<path d="M56.8009 8.65166V0H58.0986V3.21331H58.1605C58.2594 3.0486 58.4119 2.88389 58.6181 2.71918C59.063 2.38976 59.5698 2.22456 60.138 2.22456C60.9206 2.22456 61.5283 2.45116 61.961 2.90436C62.3937 3.35755 62.6096 4.01688 62.6096 4.88185V8.65166H61.3119V5.00563C61.3119 4.45351 61.1901 4.04807 60.9474 3.78833C60.7042 3.5286 60.3314 3.39897 59.829 3.39897C59.3266 3.39897 58.9124 3.57002 58.5869 3.91211C58.2614 4.2542 58.0986 4.70106 58.0986 5.25318V8.65215H56.8009V8.65166Z" fill="#4B4B4B"/>
<path d="M36.4569 2.34839H37.8164L35.221 11.0001H33.8615L36.4569 2.34839Z" fill="#4B4B4B"/>
<path d="M33.3688 2.34839H34.7284L32.133 11.0001H30.7734L33.3688 2.34839Z" fill="#4B4B4B"/>
</g>
<defs>
<clipPath id="clip0_1_166">
<rect width="62.6098" height="11" fill="white"/>
</clipPath>
</defs>
</symbol>

</svg>


