<svg>
<symbol id="fb" width="18" height="18" viewBox="0 0 18 18" fill="none" xmlns="http://www.w3.org/2000/svg">
<rect x="0.5" y="0.5" width="17" height="17" stroke="#F4F4F4"/>
<path d="M10.0546 18H6.89056C6.59908 18 6.36322 17.7641 6.36322 17.4727V10.5469H4.78119C4.48971 10.5469 4.25385 10.311 4.25385 10.0195V6.85547C4.25385 6.56399 4.48971 6.32812 4.78119 6.32812H6.36322V3.69141C6.36322 1.65618 8.0194 0 10.0546 0H13.2187C13.5102 0 13.746 0.235863 13.746 0.527344V3.69141C13.746 3.98289 13.5102 4.21875 13.2187 4.21875H10.582V6.32812H13.2187C13.3737 6.32812 13.521 6.39612 13.6209 6.51456C13.7213 6.633 13.7646 6.78906 13.7388 6.94199L13.2114 10.1061C13.1692 10.3604 12.9493 10.5469 12.6913 10.5469H10.5819V17.4727C10.582 17.7641 10.3461 18 10.0546 18Z" fill="#6C6C6C"/>
</symbol>

<symbol id="ig" width="18" height="18" viewBox="0 0 18 18" fill="none" xmlns="http://www.w3.org/2000/svg">
<rect x="0.5" y="0.5" width="17" height="17" stroke="#F4F4F4"/>
<path d="M9 5.34375C6.96445 5.34375 5.30859 6.99961 5.30859 9.03516C5.30859 11.0707 6.96445 12.7266 9 12.7266C11.0355 12.7266 12.6914 11.0707 12.6914 9.03516C12.6914 6.99961 11.0355 5.34375 9 5.34375ZM9 5.34375C6.96445 5.34375 5.30859 6.99961 5.30859 9.03516C5.30859 11.0707 6.96445 12.7266 9 12.7266C11.0355 12.7266 12.6914 11.0707 12.6914 9.03516C12.6914 6.99961 11.0355 5.34375 9 5.34375ZM15.3633 0H2.63672C1.18125 0 0 1.18125 0 2.63672V15.3633C0 16.8188 1.18125 18 2.63672 18H15.3633C16.8188 18 18 16.8188 18 15.3633V2.63672C18 1.18125 16.8188 0 15.3633 0ZM9 13.7812C6.38441 13.7812 4.25391 11.6507 4.25391 9.03516C4.25391 6.4195 6.38441 4.28906 9 4.28906C11.6156 4.28906 13.7461 6.4195 13.7461 9.03516C13.7461 11.6507 11.6156 13.7812 9 13.7812ZM14.8008 4.28906C14.2207 4.28906 13.7461 3.81445 13.7461 3.23438C13.7461 2.6543 14.2207 2.17969 14.8008 2.17969C15.3809 2.17969 15.8555 2.6543 15.8555 3.23438C15.8555 3.81445 15.3809 4.28906 14.8008 4.28906ZM9 5.34375C6.96445 5.34375 5.30859 6.99961 5.30859 9.03516C5.30859 11.0707 6.96445 12.7266 9 12.7266C11.0355 12.7266 12.6914 11.0707 12.6914 9.03516C12.6914 6.99961 11.0355 5.34375 9 5.34375ZM9 5.34375C6.96445 5.34375 5.30859 6.99961 5.30859 9.03516C5.30859 11.0707 6.96445 12.7266 9 12.7266C11.0355 12.7266 12.6914 11.0707 12.6914 9.03516C12.6914 6.99961 11.0355 5.34375 9 5.34375ZM9 5.34375C6.96445 5.34375 5.30859 6.99961 5.30859 9.03516C5.30859 11.0707 6.96445 12.7266 9 12.7266C11.0355 12.7266 12.6914 11.0707 12.6914 9.03516C12.6914 6.99961 11.0355 5.34375 9 5.34375Z" fill="#6C6C6C"/>
</symbol>

<symbol id="wu" width="18" height="18" viewBox="0 0 18 18" fill="none" xmlns="http://www.w3.org/2000/svg">
<rect x="0.5" y="0.5" width="17" height="17" stroke="#F4F4F4"/>
<path d="M9.00225 0H8.99775C4.03538 0 0 4.0365 0 9C0 10.9688 0.6345 12.7935 1.71337 14.2751L0.59175 17.6186L4.05113 16.5128C5.47425 17.4555 7.17188 18 9.00225 18C13.9646 18 18 13.9624 18 9C18 4.03763 13.9646 0 9.00225 0ZM14.2391 12.7091C14.022 13.3223 13.1602 13.8307 12.4729 13.9792C12.0026 14.0794 11.3884 14.1593 9.32063 13.302C6.67575 12.2063 4.9725 9.51862 4.83975 9.34425C4.71263 9.16988 3.771 7.92112 3.771 6.62963C3.771 5.33813 4.42688 4.70925 4.69125 4.43925C4.90838 4.21763 5.26725 4.11637 5.6115 4.11637C5.72288 4.11637 5.823 4.122 5.913 4.1265C6.17737 4.13775 6.31012 4.1535 6.4845 4.57088C6.70162 5.094 7.23037 6.3855 7.29338 6.51825C7.3575 6.651 7.42163 6.831 7.33162 7.00538C7.24725 7.18538 7.173 7.26525 7.04025 7.41825C6.9075 7.57125 6.7815 7.68825 6.64875 7.8525C6.52725 7.99538 6.39 8.14838 6.543 8.41275C6.696 8.6715 7.22475 9.53437 8.00325 10.2274C9.00787 11.1217 9.82237 11.4075 10.1137 11.529C10.3309 11.619 10.5896 11.5976 10.7483 11.4289C10.9496 11.2118 11.1982 10.8518 11.4514 10.4974C11.6314 10.2431 11.8586 10.2116 12.0971 10.3016C12.3401 10.386 13.626 11.0216 13.8904 11.1532C14.1547 11.286 14.3291 11.349 14.3932 11.4604C14.4562 11.5718 14.4562 12.0949 14.2391 12.7091Z" fill="#6C6C6C"/>
</symbol>

</svg>


